<svg width="16" height="17" viewBox="0 0 16 17" fill="none" xmlns="http://www.w3.org/2000/svg">
<path d="M8.00009 8.11112C9.84105 8.11112 11.3334 6.61873 11.3334 4.77777C11.3334 2.93682 9.84105 1.44443 8.00009 1.44443C6.15914 1.44443 4.66675 2.93682 4.66675 4.77777C4.66675 6.61873 6.15914 8.11112 8.00009 8.11112Z" stroke="#30323D" stroke-width="1.25" stroke-linecap="round" stroke-linejoin="round"/>
<path d="M2.27344 14.7778C2.27344 12.1978 4.84011 10.1111 8.00012 10.1111C8.64013 10.1111 9.26013 10.1978 9.84014 10.3578" stroke="#30323D" stroke-width="1.25" stroke-linecap="round" stroke-linejoin="round"/>
<path d="M14.6666 12.1111C14.6666 12.3245 14.6399 12.5311 14.5866 12.7311C14.5266 12.9978 14.4199 13.2578 14.2799 13.4845C13.8199 14.2578 12.9733 14.7778 11.9999 14.7778C11.3133 14.7778 10.6933 14.5178 10.2266 14.0911C10.0266 13.9178 9.85325 13.7111 9.71991 13.4845C9.47324 13.0845 9.33325 12.6111 9.33325 12.1111C9.33325 11.3911 9.61992 10.7311 10.0866 10.2511C10.5733 9.75114 11.2533 9.44446 11.9999 9.44446C12.7866 9.44446 13.4999 9.78447 13.9799 10.3311C14.4066 10.8045 14.6666 11.4311 14.6666 12.1111Z" stroke="#37B76C" stroke-miterlimit="10" stroke-linecap="round" stroke-linejoin="round"/>
<path d="M12.9935 12.0978H11.0068" stroke="#37B76C" stroke-miterlimit="10" stroke-linecap="round" stroke-linejoin="round"/>
<path d="M12.0002 11.1245V13.1178" stroke="#37B76C" stroke-miterlimit="10" stroke-linecap="round" stroke-linejoin="round"/>
</svg>
