<svg width="16" height="17" viewBox="0 0 16 17" fill="none" xmlns="http://www.w3.org/2000/svg">
<path d="M12 4.88443C11.96 4.87776 11.9133 4.87776 11.8733 4.88443C10.9533 4.8511 10.22 4.09776 10.22 3.16443C10.22 2.2111 10.9866 1.44443 11.94 1.44443C12.8933 1.44443 13.66 2.21776 13.66 3.16443C13.6533 4.09776 12.92 4.8511 12 4.88443Z" stroke="white" stroke-width="0.999996" stroke-linecap="round" stroke-linejoin="round"/>
<path d="M11.3132 9.73781C12.2265 9.89114 13.2332 9.73114 13.9399 9.25781C14.8799 8.63114 14.8799 7.60447 13.9399 6.97781C13.2265 6.50447 12.2065 6.34447 11.2932 6.50447" stroke="white" stroke-width="0.999996" stroke-linecap="round" stroke-linejoin="round"/>
<path d="M3.97983 4.88446C4.01983 4.87779 4.06649 4.87779 4.10649 4.88446C5.02649 4.85113 5.75982 4.09779 5.75982 3.16446C5.75982 2.21113 4.99316 1.44446 4.03983 1.44446C3.08649 1.44446 2.31982 2.21779 2.31982 3.16446C2.32649 4.09779 3.05983 4.85113 3.97983 4.88446Z" stroke="white" stroke-width="0.999996" stroke-linecap="round" stroke-linejoin="round"/>
<path d="M4.66663 9.73781C3.75329 9.89114 2.74663 9.73114 2.03996 9.25781C1.09996 8.63114 1.09996 7.60447 2.03996 6.97781C2.75329 6.50447 3.77329 6.34447 4.68663 6.50447" stroke="white" stroke-width="0.999996" stroke-linecap="round" stroke-linejoin="round"/>
<path d="M7.99997 9.86444C7.95997 9.85777 7.9133 9.85777 7.8733 9.86444C6.9533 9.83111 6.21997 9.07777 6.21997 8.14444C6.21997 7.19111 6.98664 6.42444 7.93997 6.42444C8.8933 6.42444 9.65997 7.19777 9.65997 8.14444C9.6533 9.07777 8.91997 9.83777 7.99997 9.86444Z" stroke="white" stroke-width="0.999996" stroke-linecap="round" stroke-linejoin="round"/>
<path d="M6.05998 11.9644C5.11998 12.5911 5.11998 13.6178 6.05998 14.2444C7.12665 14.9578 8.87331 14.9578 9.93998 14.2444C10.88 13.6178 10.88 12.5911 9.93998 11.9644C8.87998 11.2578 7.12665 11.2578 6.05998 11.9644Z" stroke="white" stroke-width="0.999996" stroke-linecap="round" stroke-linejoin="round"/>
</svg>
