<svg width="16" height="17" viewBox="0 0 16 17" fill="none" xmlns="http://www.w3.org/2000/svg">
<path d="M11.3333 6.77773H12.6666C13.9999 6.77773 14.6666 6.11106 14.6666 4.77773V3.4444C14.6666 2.11106 13.9999 1.4444 12.6666 1.4444H11.3333C9.99992 1.4444 9.33325 2.11106 9.33325 3.4444V4.77773C9.33325 6.11106 9.99992 6.77773 11.3333 6.77773Z" stroke="#EA526F" stroke-miterlimit="10" stroke-linecap="round" stroke-linejoin="round"/>
<path d="M3.33325 14.7777H4.66659C5.99992 14.7777 6.66659 14.1111 6.66659 12.7777V11.4444C6.66659 10.1111 5.99992 9.4444 4.66659 9.4444H3.33325C1.99992 9.4444 1.33325 10.1111 1.33325 11.4444V12.7777C1.33325 14.1111 1.99992 14.7777 3.33325 14.7777Z" stroke="#8ABF8F" stroke-miterlimit="10" stroke-linecap="round" stroke-linejoin="round"/>
<path d="M3.99992 6.77773C5.47268 6.77773 6.66659 5.58382 6.66659 4.11106C6.66659 2.6383 5.47268 1.4444 3.99992 1.4444C2.52716 1.4444 1.33325 2.6383 1.33325 4.11106C1.33325 5.58382 2.52716 6.77773 3.99992 6.77773Z" stroke="#37B76C" stroke-miterlimit="10" stroke-linecap="round" stroke-linejoin="round"/>
<path d="M11.9999 14.7777C13.4727 14.7777 14.6666 13.5838 14.6666 12.1111C14.6666 10.6383 13.4727 9.4444 11.9999 9.4444C10.5272 9.4444 9.33325 10.6383 9.33325 12.1111C9.33325 13.5838 10.5272 14.7777 11.9999 14.7777Z" stroke="#37B76C" stroke-miterlimit="10" stroke-linecap="round" stroke-linejoin="round"/>
</svg>
