<svg width="16" height="17" viewBox="0 0 16 17" fill="none" xmlns="http://www.w3.org/2000/svg">
<path d="M14.0533 5.83113V10.3911C14.0533 11.1378 13.6533 11.8312 13.0067 12.2112L9.04663 14.4978C8.39997 14.8712 7.59996 14.8712 6.94663 14.4978L2.98661 12.2112C2.33994 11.8378 1.93994 11.1445 1.93994 10.3911V5.83113C1.93994 5.08446 2.33994 4.39109 2.98661 4.01109L6.94663 1.72442C7.5933 1.35109 8.3933 1.35109 9.04663 1.72442L13.0067 4.01109C13.6533 4.39109 14.0533 5.07779 14.0533 5.83113Z" stroke="#30323D" stroke-width="1.2" stroke-linecap="round" stroke-linejoin="round"/>
<path d="M7.99987 7.44444C8.85776 7.44444 9.55321 6.74898 9.55321 5.89109C9.55321 5.03321 8.85776 4.33778 7.99987 4.33778C7.14199 4.33778 6.44653 5.03321 6.44653 5.89109C6.44653 6.74898 7.14199 7.44444 7.99987 7.44444Z" stroke="#EA526F" stroke-width="1.2" stroke-linecap="round" stroke-linejoin="round"/>
<path d="M10.6666 11.2178C10.6666 10.0178 9.47327 9.04446 7.99993 9.04446C6.52659 9.04446 5.33325 10.0178 5.33325 11.2178" stroke="#30323D" stroke-width="1.2" stroke-linecap="round" stroke-linejoin="round"/>
</svg>
