<svg width="16" height="17" viewBox="0 0 16 17" fill="none" xmlns="http://www.w3.org/2000/svg">
<path d="M11.3333 12.3978H8.66658L5.69991 14.3711C5.25991 14.6644 4.66659 14.3511 4.66659 13.8178V12.3978C2.66659 12.3978 1.33325 11.0645 1.33325 9.06445V5.06441C1.33325 3.06441 2.66659 1.73108 4.66659 1.73108H11.3333C13.3333 1.73108 14.6666 3.06441 14.6666 5.06441V9.06445C14.6666 11.0645 13.3333 12.3978 11.3333 12.3978Z" stroke="#30323D" stroke-miterlimit="10" stroke-linecap="round" stroke-linejoin="round"/>
<path d="M7.99996 7.68441V7.54443C7.99996 7.0911 8.27998 6.85109 8.55998 6.65776C8.83331 6.47109 9.10661 6.2311 9.10661 5.7911C9.10661 5.17776 8.61329 4.68441 7.99996 4.68441C7.38663 4.68441 6.89331 5.17776 6.89331 5.7911" stroke="#2BB8D6" stroke-linecap="round" stroke-linejoin="round"/>
<path d="M7.99708 9.27775H8.00308" stroke="#2BB8D6" stroke-linecap="round" stroke-linejoin="round"/>
</svg>
