<svg width="16" height="17" viewBox="0 0 16 17" fill="none" xmlns="http://www.w3.org/2000/svg">
<path d="M14.6666 6.77778V8.77778C14.6666 11.4445 13.3333 12.7778 10.6666 12.7778H10.3333C10.1266 12.7778 9.92662 12.8778 9.79995 13.0445L8.79995 14.3778C8.35995 14.9645 7.63994 14.9645 7.19994 14.3778L6.19994 13.0445C6.09327 12.8978 5.8466 12.7778 5.6666 12.7778H5.33327C2.66659 12.7778 1.33325 12.1111 1.33325 8.77778V5.44444C1.33325 2.77776 2.66659 1.44442 5.33327 1.44442H9.33328" stroke="#30323D" stroke-width="1.25" stroke-miterlimit="10" stroke-linecap="round" stroke-linejoin="round"/>
<path d="M13.0002 4.77777C13.9206 4.77777 14.6668 4.03157 14.6668 3.11109C14.6668 2.19062 13.9206 1.44442 13.0002 1.44442C12.0797 1.44442 11.3335 2.19062 11.3335 3.11109C11.3335 4.03157 12.0797 4.77777 13.0002 4.77777Z" fill="#EA526F" stroke="#EA526F" stroke-width="1.25" stroke-linecap="round" stroke-linejoin="round"/>
<path d="M10.6644 7.44445H10.6704" stroke="#37B76C" stroke-width="1.25" stroke-linecap="round" stroke-linejoin="round"/>
<path d="M7.99691 7.44445H8.0029" stroke="#2BB8D6" stroke-width="1.25" stroke-linecap="round" stroke-linejoin="round"/>
<path d="M5.32967 7.44445H5.33566" stroke="#FECA55" stroke-width="1.25" stroke-linecap="round" stroke-linejoin="round"/>
</svg>
