<svg width="16" height="16" viewBox="0 0 16 16" fill="none" xmlns="http://www.w3.org/2000/svg">
<path d="M5.99992 14.6667H9.99992C13.3333 14.6667 14.6666 13.3333 14.6666 10V6.00001C14.6666 2.66668 13.3333 1.33334 9.99992 1.33334H5.99992C2.66659 1.33334 1.33325 2.66668 1.33325 6.00001V10C1.33325 13.3333 2.66659 14.6667 5.99992 14.6667Z" stroke="#30323D" stroke-linecap="round" stroke-linejoin="round"/>
<path d="M10.3799 12.3333V9.73331" stroke="#30323D" stroke-miterlimit="10" stroke-linecap="round" stroke-linejoin="round"/>
<path d="M10.3799 4.96666V3.66666" stroke="#30323D" stroke-miterlimit="10" stroke-linecap="round" stroke-linejoin="round"/>
<path d="M10.3801 8.43334C11.3374 8.43334 12.1134 7.6573 12.1134 6.70001C12.1134 5.74271 11.3374 4.96667 10.3801 4.96667C9.42277 4.96667 8.64673 5.74271 8.64673 6.70001C8.64673 7.6573 9.42277 8.43334 10.3801 8.43334Z" stroke="#EA526F" stroke-miterlimit="10" stroke-linecap="round" stroke-linejoin="round"/>
<path d="M5.62012 12.3333V11.0333" stroke="#30323D" stroke-miterlimit="10" stroke-linecap="round" stroke-linejoin="round"/>
<path d="M5.62012 6.26666V3.66666" stroke="#30323D" stroke-miterlimit="10" stroke-linecap="round" stroke-linejoin="round"/>
<path d="M5.62005 11.0333C6.57735 11.0333 7.35338 10.2573 7.35338 9.29998C7.35338 8.34269 6.57735 7.56665 5.62005 7.56665C4.66276 7.56665 3.88672 8.34269 3.88672 9.29998C3.88672 10.2573 4.66276 11.0333 5.62005 11.0333Z" stroke="#37B76C" stroke-miterlimit="10" stroke-linecap="round" stroke-linejoin="round"/>
</svg>
