<svg width="80" height="80" viewBox="0 0 80 80" fill="none" xmlns="http://www.w3.org/2000/svg">
<g filter="url(#filter0_ddd_0_461)">
<rect x="12" y="2" width="56" height="56" rx="4" fill="white"/>
<path d="M36.8543 34.156C36.4063 34.156 35.9723 34.086 35.5523 33.946C35.1363 33.806 34.7723 33.606 34.4603 33.346C34.1483 33.086 33.9283 32.776 33.8003 32.416L34.5863 32.122C34.6743 32.37 34.8343 32.584 35.0663 32.764C35.3023 32.94 35.5763 33.076 35.8883 33.172C36.2043 33.268 36.5263 33.316 36.8543 33.316C37.2383 33.316 37.5963 33.252 37.9283 33.124C38.2603 32.996 38.5283 32.818 38.7323 32.59C38.9363 32.358 39.0383 32.086 39.0383 31.774C39.0383 31.458 38.9323 31.198 38.7203 30.994C38.5083 30.79 38.2343 30.63 37.8983 30.514C37.5663 30.394 37.2183 30.302 36.8543 30.238C36.2823 30.138 35.7683 30.002 35.3123 29.83C34.8603 29.658 34.5023 29.416 34.2383 29.104C33.9743 28.788 33.8423 28.372 33.8423 27.856C33.8423 27.372 33.9823 26.952 34.2623 26.596C34.5423 26.24 34.9103 25.964 35.3663 25.768C35.8263 25.572 36.3223 25.474 36.8543 25.474C37.2903 25.474 37.7163 25.542 38.1323 25.678C38.5483 25.814 38.9143 26.012 39.2303 26.272C39.5503 26.532 39.7803 26.85 39.9203 27.226L39.1223 27.514C39.0343 27.262 38.8723 27.048 38.6363 26.872C38.4043 26.692 38.1323 26.556 37.8203 26.464C37.5083 26.368 37.1863 26.32 36.8543 26.32C36.4743 26.316 36.1183 26.38 35.7863 26.512C35.4583 26.64 35.1923 26.82 34.9883 27.052C34.7843 27.28 34.6823 27.548 34.6823 27.856C34.6823 28.216 34.7763 28.494 34.9643 28.69C35.1563 28.882 35.4163 29.026 35.7443 29.122C36.0723 29.218 36.4423 29.304 36.8543 29.38C37.3903 29.472 37.8883 29.616 38.3483 29.812C38.8083 30.004 39.1783 30.262 39.4583 30.586C39.7383 30.906 39.8783 31.302 39.8783 31.774C39.8783 32.254 39.7383 32.674 39.4583 33.034C39.1783 33.39 38.8083 33.666 38.3483 33.862C37.8923 34.058 37.3943 34.156 36.8543 34.156ZM45.6865 32.494L46.4365 32.902C46.1645 33.282 45.8185 33.586 45.3985 33.814C44.9825 34.042 44.5305 34.156 44.0425 34.156C43.4905 34.156 42.9865 34.014 42.5305 33.73C42.0785 33.446 41.7165 33.066 41.4445 32.59C41.1765 32.11 41.0425 31.58 41.0425 31C41.0425 30.56 41.1205 30.15 41.2765 29.77C41.4325 29.386 41.6465 29.05 41.9185 28.762C42.1945 28.47 42.5145 28.242 42.8785 28.078C43.2425 27.914 43.6305 27.832 44.0425 27.832C44.5305 27.832 44.9825 27.946 45.3985 28.174C45.8185 28.402 46.1645 28.708 46.4365 29.092L45.6865 29.494C45.4785 29.23 45.2285 29.028 44.9365 28.888C44.6445 28.744 44.3465 28.672 44.0425 28.672C43.6385 28.672 43.2725 28.78 42.9445 28.996C42.6165 29.208 42.3565 29.49 42.1645 29.842C41.9765 30.194 41.8825 30.58 41.8825 31C41.8825 31.42 41.9785 31.806 42.1705 32.158C42.3665 32.51 42.6285 32.792 42.9565 33.004C43.2845 33.212 43.6465 33.316 44.0425 33.316C44.3705 33.316 44.6785 33.24 44.9665 33.088C45.2545 32.936 45.4945 32.738 45.6865 32.494Z" fill="#EA526F"/>
</g>
<defs>
<filter id="filter0_ddd_0_461" x="0" y="0" width="80" height="80" filterUnits="userSpaceOnUse" color-interpolation-filters="sRGB">
<feFlood flood-opacity="0" result="BackgroundImageFix"/>
<feColorMatrix in="SourceAlpha" type="matrix" values="0 0 0 0 0 0 0 0 0 0 0 0 0 0 0 0 0 0 127 0" result="hardAlpha"/>
<feMorphology radius="4" operator="erode" in="SourceAlpha" result="effect1_dropShadow_0_461"/>
<feOffset dy="4"/>
<feGaussianBlur stdDeviation="3"/>
<feComposite in2="hardAlpha" operator="out"/>
<feColorMatrix type="matrix" values="0 0 0 0 0.152941 0 0 0 0 0.152941 0 0 0 0 0.164706 0 0 0 0.05 0"/>
<feBlend mode="normal" in2="BackgroundImageFix" result="effect1_dropShadow_0_461"/>
<feColorMatrix in="SourceAlpha" type="matrix" values="0 0 0 0 0 0 0 0 0 0 0 0 0 0 0 0 0 0 127 0" result="hardAlpha"/>
<feMorphology radius="3" operator="erode" in="SourceAlpha" result="effect2_dropShadow_0_461"/>
<feOffset dy="10"/>
<feGaussianBlur stdDeviation="7.5"/>
<feComposite in2="hardAlpha" operator="out"/>
<feColorMatrix type="matrix" values="0 0 0 0 0.152941 0 0 0 0 0.152941 0 0 0 0 0.164706 0 0 0 0.05 0"/>
<feBlend mode="normal" in2="effect1_dropShadow_0_461" result="effect2_dropShadow_0_461"/>
<feColorMatrix in="SourceAlpha" type="matrix" values="0 0 0 0 0 0 0 0 0 0 0 0 0 0 0 0 0 0 127 0" result="hardAlpha"/>
<feMorphology radius="1" operator="dilate" in="SourceAlpha" result="effect3_dropShadow_0_461"/>
<feOffset/>
<feComposite in2="hardAlpha" operator="out"/>
<feColorMatrix type="matrix" values="0 0 0 0 0.0941176 0 0 0 0 0.0941176 0 0 0 0 0.105882 0 0 0 0.05 0"/>
<feBlend mode="normal" in2="effect2_dropShadow_0_461" result="effect3_dropShadow_0_461"/>
<feBlend mode="normal" in="SourceGraphic" in2="effect3_dropShadow_0_461" result="shape"/>
</filter>
</defs>
</svg>
