<svg width="71" height="23" viewBox="0 0 71 23" fill="none" xmlns="http://www.w3.org/2000/svg">
<rect x="2" y="2" width="19" height="19" rx="9" fill="#37B76C"/>
<path d="M14.2232 7H8.6769C8.46877 7 8.30005 7.16872 8.30005 7.37685C8.30005 8.57621 8.77649 9.72644 9.62457 10.5745L10.1732 11.1232C10.2277 11.1776 10.2549 11.2049 10.2744 11.231C10.3934 11.3906 10.3934 11.6094 10.2744 11.769C10.2549 11.7951 10.2277 11.8224 10.1732 11.8768L9.62457 12.4255C8.77649 13.2736 8.30005 14.4238 8.30005 15.6232C8.30005 15.8313 8.46877 16 8.6769 16H14.2232C14.4313 16 14.6 15.8313 14.6 15.6232C14.6 14.4238 14.1236 13.2736 13.2755 12.4255L12.7269 11.8768C12.6724 11.8224 12.6452 11.7951 12.6257 11.769C12.5067 11.6094 12.5067 11.3906 12.6257 11.231C12.6452 11.2049 12.6724 11.1776 12.7269 11.1232L13.2755 10.5745C14.1236 9.72644 14.6 8.57621 14.6 7.37685C14.6 7.16872 14.4313 7 14.2232 7Z" stroke="white" stroke-width="0.9" stroke-linecap="round" stroke-linejoin="round"/>
<path d="M23.6562 13.7955V12.7301L27.4276 6.77273H28.267V8.34091H27.7344L25.0369 12.6108V12.679H30.206V13.7955H23.6562ZM27.794 15.5V13.4716L27.8026 12.9858V6.77273H29.0511V15.5H27.794ZM37.8142 15.6278C37.2858 15.6278 36.8142 15.4929 36.3994 15.223C35.9875 14.9503 35.6636 14.5625 35.4278 14.0597C35.1948 13.554 35.0784 12.9474 35.0784 12.2401C35.0784 11.5327 35.1963 10.9276 35.4321 10.4247C35.6707 9.92187 35.9974 9.53693 36.4122 9.26989C36.8269 9.00284 37.2971 8.86932 37.8227 8.86932C38.2289 8.86932 38.5556 8.9375 38.8028 9.07386C39.0528 9.20739 39.246 9.36364 39.3823 9.54261C39.5215 9.72159 39.6295 9.87926 39.7062 10.0156H39.7829V6.77273H41.0571V15.5H39.8127V14.4815H39.7062C39.6295 14.6207 39.5187 14.7798 39.3738 14.9588C39.2318 15.1378 39.0358 15.294 38.7858 15.4276C38.5358 15.5611 38.2119 15.6278 37.8142 15.6278ZM38.0954 14.5412C38.4619 14.5412 38.7715 14.4446 39.0244 14.2514C39.2801 14.0554 39.4733 13.7841 39.6039 13.4375C39.7375 13.0909 39.8042 12.6875 39.8042 12.2273C39.8042 11.7727 39.7389 11.375 39.6082 11.0341C39.4775 10.6932 39.2858 10.4276 39.0329 10.2372C38.7801 10.0469 38.4676 9.9517 38.0954 9.9517C37.7119 9.9517 37.3923 10.0511 37.1366 10.25C36.8809 10.4489 36.6877 10.7202 36.5571 11.0639C36.4292 11.4077 36.3653 11.7955 36.3653 12.2273C36.3653 12.6648 36.4306 13.0582 36.5613 13.4077C36.692 13.7571 36.8852 14.0341 37.1409 14.2386C37.3994 14.4403 37.7176 14.5412 38.0954 14.5412ZM45.0204 15.6449C44.6057 15.6449 44.2307 15.5682 43.8954 15.4148C43.5602 15.2585 43.2946 15.0327 43.0986 14.7372C42.9054 14.4418 42.8088 14.0795 42.8088 13.6506C42.8088 13.2812 42.8798 12.9773 43.0218 12.7386C43.1639 12.5 43.3557 12.3111 43.5971 12.1719C43.8386 12.0327 44.1085 11.9276 44.4068 11.8565C44.7051 11.7855 45.0091 11.7315 45.3187 11.6946C45.7108 11.6491 46.0289 11.6122 46.2733 11.5838C46.5176 11.5526 46.6951 11.5028 46.8059 11.4347C46.9167 11.3665 46.9721 11.2557 46.9721 11.1023V11.0724C46.9721 10.7003 46.867 10.4119 46.6568 10.2074C46.4494 10.0028 46.1397 9.90057 45.7278 9.90057C45.2988 9.90057 44.9608 9.99574 44.7136 10.1861C44.4693 10.3736 44.3003 10.5824 44.2065 10.8125L43.0091 10.5398C43.1511 10.142 43.3585 9.82102 43.6312 9.5767C43.9068 9.32955 44.2236 9.15057 44.5815 9.03977C44.9395 8.92614 45.3159 8.86932 45.7108 8.86932C45.9721 8.86932 46.2491 8.90057 46.5417 8.96307C46.8372 9.02273 47.1128 9.13352 47.3684 9.29545C47.627 9.45739 47.8386 9.68892 48.0034 9.99006C48.1682 10.2884 48.2505 10.6761 48.2505 11.1534V15.5H47.0062V14.6051H46.9551C46.8727 14.7699 46.7491 14.9318 46.5843 15.0909C46.4196 15.25 46.2079 15.3821 45.9494 15.4872C45.6909 15.5923 45.3812 15.6449 45.0204 15.6449ZM45.2974 14.6222C45.6497 14.6222 45.9508 14.5526 46.2008 14.4134C46.4537 14.2741 46.6454 14.0923 46.7761 13.8679C46.9096 13.6406 46.9764 13.3977 46.9764 13.1392V12.2955C46.9309 12.3409 46.8429 12.3835 46.7122 12.4233C46.5843 12.4602 46.438 12.4929 46.2733 12.5213C46.1085 12.5469 45.948 12.571 45.7917 12.5938C45.6355 12.6136 45.5048 12.6307 45.3997 12.6449C45.1525 12.6761 44.9267 12.7287 44.7221 12.8026C44.5204 12.8764 44.3585 12.983 44.2363 13.1222C44.117 13.2585 44.0574 13.4403 44.0574 13.6676C44.0574 13.983 44.1738 14.2216 44.4068 14.3835C44.6397 14.5426 44.9366 14.6222 45.2974 14.6222ZM50.7586 17.9545C50.5683 17.9545 50.395 17.9389 50.2388 17.9077C50.0825 17.8793 49.966 17.848 49.8893 17.8139L50.1961 16.7699C50.4291 16.8324 50.6365 16.8594 50.8183 16.8509C51.0001 16.8423 51.1606 16.7741 51.2998 16.6463C51.4419 16.5185 51.5669 16.3097 51.6748 16.0199L51.8325 15.5852L49.4376 8.95455H50.8013L52.4589 14.0341H52.5271L54.1848 8.95455H55.5527L52.8552 16.3736C52.7302 16.7145 52.5711 17.0028 52.378 17.2386C52.1848 17.4773 51.9547 17.6563 51.6876 17.7756C51.4206 17.8949 51.1109 17.9545 50.7586 17.9545ZM61.895 10.5526L60.7401 10.7571C60.6918 10.6094 60.6151 10.4687 60.51 10.3352C60.4077 10.2017 60.2685 10.0923 60.0924 10.0071C59.9163 9.92187 59.6961 9.87926 59.4319 9.87926C59.0711 9.87926 58.77 9.96023 58.5285 10.1222C58.287 10.2812 58.1663 10.4872 58.1663 10.7401C58.1663 10.9588 58.2472 11.1349 58.4092 11.2685C58.5711 11.402 58.8325 11.5114 59.1933 11.5966L60.233 11.8352C60.8353 11.9744 61.2842 12.1889 61.5796 12.4787C61.8751 12.7685 62.0228 13.1449 62.0228 13.608C62.0228 14 61.9092 14.3494 61.6819 14.6562C61.4575 14.9602 61.1435 15.1989 60.7401 15.3722C60.3396 15.5455 59.8751 15.6321 59.3467 15.6321C58.6137 15.6321 58.0157 15.4759 57.5526 15.1634C57.0896 14.848 56.8055 14.4006 56.7004 13.821L57.9319 13.6335C58.0086 13.9545 58.1663 14.1974 58.4049 14.3622C58.6435 14.5241 58.9546 14.6051 59.3381 14.6051C59.7558 14.6051 60.0896 14.5185 60.3396 14.3452C60.5896 14.169 60.7146 13.9545 60.7146 13.7017C60.7146 13.4972 60.6379 13.3253 60.4844 13.1861C60.3339 13.0469 60.1023 12.9418 59.7898 12.8707L58.6819 12.6278C58.0711 12.4886 57.6194 12.267 57.3268 11.9631C57.037 11.6591 56.8921 11.2741 56.8921 10.8082C56.8921 10.4219 57.0001 10.0838 57.216 9.79403C57.4319 9.50426 57.7302 9.27841 58.1109 9.11648C58.4915 8.9517 58.9276 8.86932 59.4191 8.86932C60.1265 8.86932 60.6833 9.02273 61.0896 9.32955C61.4958 9.63352 61.7643 10.0412 61.895 10.5526Z" fill="#37B76C"/>
<rect x="0.5" y="0.5" width="70" height="22" rx="11" stroke="#37B76C"/>
</svg>
